<?xml version="1.0" encoding="UTF-8"?>
<svg width="38px" height="42px" viewBox="0 0 38 42" version="1.1" xmlns="http://www.w3.org/2000/svg" xmlns:xlink="http://www.w3.org/1999/xlink">
    <!-- Generator: Sketch 52.2 (67145) - http://www.bohemiancoding.com/sketch -->
    <title>免费下载</title>
    <desc>Created with Sketch.</desc>
    <defs>
        <linearGradient x1="-28.528652%" y1="-25.3532967%" x2="132.692605%" y2="139.434893%" id="linearGradient-1">
            <stop stop-color="#FB5758" offset="0%"></stop>
            <stop stop-color="#FF8063" offset="100%"></stop>
        </linearGradient>
    </defs>
    <g id="Page-1" stroke="none" stroke-width="1" fill="none" fill-rule="evenodd">
        <g id="弹窗2" transform="translate(-344.000000, -1306.000000)">
            <g id="免费下载" transform="translate(333.000000, 1297.000000)">
                <rect id="Rectangle-13" x="0" y="0" width="60" height="60"></rect>
                <path d="M31,32.5507291 L39,24.2702703 C39.3905243,23.879746 40.0236893,23.879746 40.4142136,24.2702703 C40.8047379,24.6607946 40.8047379,25.2939595 40.4142136,25.6844838 L30.7071068,35.7071068 C30.3165825,36.0976311 29.6834175,36.0976311 29.2928932,35.7071068 L19.6940911,25.6844838 C19.3035668,25.2939595 19.3035668,24.6607946 19.6940911,24.2702703 C20.0846154,23.879746 20.7177804,23.879746 21.1083047,24.2702703 L29,32.5381216 L29,10.1304348 C29,9.50611289 29.4477153,9 30,9 C30.5522847,9 31,9.50611289 31,10.1304348 L31,32.5507291 Z M17.7985849,14 C18.3508697,14 18.7985849,14.4477153 18.7985849,15 C18.7985849,15.5522847 18.3508697,16 17.7985849,16 L13.8816226,16 C13.3949849,16 13,16.3950752 13,16.8816226 L13,48.1183774 C13,48.6049248 13.3949849,49 13.8816226,49 L46.1183774,49 C46.6050151,49 47,48.6049248 47,48.1183774 L47,16.8816226 C47,16.3950752 46.6050151,16 46.1183774,16 L42.2014151,16 C41.6491303,16 41.2014151,15.5522847 41.2014151,15 C41.2014151,14.4477153 41.6491303,14 42.2014151,14 L46.1183774,14 C47.709687,14 49,15.290608 49,16.8816226 L49,48.1183774 C49,49.709392 47.709687,51 46.1183774,51 L13.8816226,51 C12.290313,51 11,49.709392 11,48.1183774 L11,16.8816226 C11,15.290608 12.290313,14 13.8816226,14 L17.7985849,14 Z" id="Combined-Shape" fill="url(#linearGradient-1)" fill-rule="nonzero"></path>
            </g>
        </g>
    </g>
</svg>