<?xml version="1.0" encoding="UTF-8"?>
<svg width="47px" height="45px" viewBox="0 0 47 45" version="1.1" xmlns="http://www.w3.org/2000/svg" xmlns:xlink="http://www.w3.org/1999/xlink">
    <!-- Generator: Sketch 52.2 (67145) - http://www.bohemiancoding.com/sketch -->
    <title>专属曲库</title>
    <desc>Created with Sketch.</desc>
    <defs>
        <linearGradient x1="-28.0650948%" y1="-23.4066417%" x2="130.555941%" y2="127.276992%" id="linearGradient-1">
            <stop stop-color="#FB5758" offset="0%"></stop>
            <stop stop-color="#FF8063" offset="100%"></stop>
        </linearGradient>
    </defs>
    <g id="Page-1" stroke="none" stroke-width="1" fill="none" fill-rule="evenodd">
        <g id="弹窗2" transform="translate(-202.000000, -1305.000000)">
            <g id="专属曲库" transform="translate(195.000000, 1297.000000)">
                <rect id="Rectangle-13" x="0" y="0" width="60" height="60"></rect>
                <path d="M11.3731356,16 C11.3075975,16 11.2420771,16.0021476 11.1766798,16.0064394 C9.52338192,16.1149389 8.27107542,17.5431579 8.37957494,19.1964558 L10.3065309,48.5590931 C10.4100362,50.1362897 11.7195022,51.3626374 13.3000915,51.3626374 L47.4912951,51.3626374 C49.0718844,51.3626374 50.3813504,50.1362897 50.4848557,48.5590931 L52.4118117,19.1964558 C52.4161034,19.1310584 52.418251,19.065538 52.418251,19 C52.418251,17.3431458 51.0751053,16 49.418251,16 L11.3731356,16 Z" id="Rectangle" stroke="url(#linearGradient-1)" stroke-width="2"></path>
                <path d="M13,16.3076923 L11,16.3076923 L11,13.8901099 C11,10.6658087 13.6298518,8.05494505 16.8703297,8.05494505 L43.6571429,8.05494505 C46.8976208,8.05494505 49.5274725,10.6658087 49.5274725,13.8901099 L49.5274725,16.3076923 L47.5274725,16.3076923 L47.5274725,13.8901099 C47.5274725,11.7736355 45.7962825,10.0549451 43.6571429,10.0549451 L16.8703297,10.0549451 C14.73119,10.0549451 13,11.7736355 13,13.8901099 L13,16.3076923 Z" id="Rectangle-2" fill="url(#linearGradient-1)" fill-rule="nonzero"></path>
                <path d="M26.5,43.6923077 C23.5041894,43.6923077 21,41.6742796 21,39.0659341 C21,36.4575885 23.5041894,34.4395604 26.5,34.4395604 C29.4958106,34.4395604 32,36.4575885 32,39.0659341 C32,41.6742796 29.4958106,43.6923077 26.5,43.6923077 Z M26.5,41.6923077 C28.4747522,41.6923077 30,40.4631702 30,39.0659341 C30,37.6686979 28.4747522,36.4395604 26.5,36.4395604 C24.5252478,36.4395604 23,37.6686979 23,39.0659341 C23,40.4631702 24.5252478,41.6923077 26.5,41.6923077 Z" id="Oval" fill="url(#linearGradient-1)" fill-rule="nonzero"></path>
                <path d="M32,39 C32,39.5522847 31.5522847,40 31,40 C30.4477153,40 30,39.5522847 30,39 L30,24 C30,23.4477153 30.4477153,23 31,23 C31.5522847,23 32,23.4477153 32,24 L32,39 Z" id="Line" fill="url(#linearGradient-1)" fill-rule="nonzero"></path>
                <path d="M31,28.1446466 L37.4615385,26.3434023 L37.4615385,21.933034 L31,23.7342784 L31,28.1446466 Z" id="Rectangle-3" stroke="url(#linearGradient-1)" stroke-width="2"></path>
            </g>
        </g>
    </g>
</svg>